Oswald--800.ufo
<glyph name="ampersand" format="1">
  <advance width="1145"/>
  <unicode hex="0026"/>
  <outline>
    <contour>
      <point x="456" y="-29" type="curve" smooth="yes"/>
      <point x="570" y="-29"/>
      <point x="679" y="16"/>
      <point x="751" y="106" type="curve"/>
      <point x="817" y="48"/>
      <point x="904" y="-35"/>
      <point x="1001" y="-35" type="curve" smooth="yes"/>
      <point x="1025" y="-35"/>
      <point x="1046" y="-29"/>
      <point x="1068" y="-24" type="curve"/>
      <point x="1068" y="222" type="line"/>
      <point x="1018" y="228"/>
      <point x="965" y="254"/>
      <point x="941" y="284" type="curve"/>
      <point x="1015" y="435"/>
      <point x="1055" y="566"/>
      <point x="1055" y="831" type="curve"/>
      <point x="828" y="831" type="line"/>
      <point x="827" y="725"/>
      <point x="806" y="537"/>
      <point x="772" y="482" type="curve"/>
      <point x="594" y="837" type="line"/>
      <point x="706" y="964"/>
      <point x="866" y="1085"/>
      <point x="866" y="1320" type="curve" smooth="yes"/>
      <point x="866" y="1548"/>
      <point x="704" y="1686"/>
      <point x="491" y="1686" type="curve" smooth="yes"/>
      <point x="272" y="1686"/>
      <point x="139" y="1515"/>
      <point x="139" y="1315" type="curve" smooth="yes"/>
      <point x="139" y="1173"/>
      <point x="228" y="1054"/>
      <point x="302" y="897" type="curve"/>
      <point x="178" y="772"/>
      <point x="70" y="560"/>
      <point x="70" y="366" type="curve" smooth="yes"/>
      <point x="70" y="134"/>
      <point x="233" y="-29"/>
    </contour>
    <contour>
      <point x="463" y="208" type="curve" smooth="yes"/>
      <point x="415" y="208"/>
      <point x="346" y="274"/>
      <point x="346" y="397" type="curve" smooth="yes"/>
      <point x="346" y="467"/>
      <point x="368" y="553"/>
      <point x="426" y="653" type="curve"/>
      <point x="449" y="597"/>
      <point x="594" y="266"/>
      <point x="594" y="266" type="curve"/>
      <point x="554" y="211"/>
      <point x="506" y="208"/>
    </contour>
    <contour>
      <point x="495" y="1030" type="curve"/>
      <point x="487" y="1081"/>
      <point x="425" y="1247"/>
      <point x="425" y="1336" type="curve" smooth="yes"/>
      <point x="425" y="1401"/>
      <point x="465" y="1435"/>
      <point x="509" y="1435" type="curve" smooth="yes"/>
      <point x="553" y="1435"/>
      <point x="596" y="1402"/>
      <point x="596" y="1341" type="curve" smooth="yes"/>
      <point x="596" y="1253"/>
      <point x="519" y="1092"/>
    </contour>
  </outline>
</glyph>
<glyph name="one" format="1">
  <advance width="1122"/>
  <unicode hex="0031"/>
  <outline>
    <contour>
      <point x="415" y="0" type="line"/>
      <point x="795" y="0" type="line"/>
      <point x="795" y="1658" type="line"/>
      <point x="496" y="1658" type="line"/>
      <point x="449" y="1617"/>
      <point x="255" y="1505"/>
      <point x="206" y="1475" type="curve"/>
      <point x="206" y="1194" type="line"/>
      <point x="206" y="1194"/>
      <point x="415" y="1306"/>
      <point x="415" y="1306" type="curve"/>
    </contour>
  </outline>
</glyph>
<glyph name="less" format="1">
  <advance width="830"/>
  <unicode hex="003C"/>
  <outline>
    <contour>
      <point x="713" y="244" type="line"/>
      <point x="713" y="553" type="line"/>
      <point x="326" y="832" type="line"/>
      <point x="713" y="1107" type="line"/>
      <point x="713" y="1418" type="line"/>
      <point x="66" y="964" type="line"/>
      <point x="66" y="696" type="line"/>
    </contour>
  </outline>
</glyph>
<glyph name="equal" format="1">
  <advance width="924"/>
  <unicode hex="003D"/>
  <outline>
    <contour>
      <point x="133" y="487" type="line"/>
      <point x="791" y="487" type="line"/>
      <point x="791" y="700" type="line"/>
      <point x="133" y="700" type="line"/>
    </contour>
    <contour>
      <point x="133" y="883" type="line"/>
      <point x="791" y="883" type="line"/>
      <point x="791" y="1096" type="line"/>
      <point x="133" y="1096" type="line"/>
    </contour>
  </outline>
</glyph>
<glyph name="C" format="1">
  <advance width="1181"/>
  <unicode hex="0043"/>
  <outline>
    <contour>
      <point x="613" y="-26" type="curve" smooth="yes"/>
      <point x="998" y="-26"/>
      <point x="1108" y="187"/>
      <point x="1108" y="463" type="curve" smooth="yes"/>
      <point x="1108" y="611" type="line"/>
      <point x="709" y="611" type="line"/>
      <point x="709" y="421" type="line" smooth="yes"/>
      <point x="709" y="350"/>
      <point x="707" y="255"/>
      <point x="613" y="255" type="curve" smooth="yes"/>
      <point x="521" y="255"/>
      <point x="513" y="348"/>
      <point x="513" y="421" type="curve" smooth="yes"/>
      <point x="513" y="1237" type="line" smooth="yes"/>
      <point x="513" y="1309"/>
      <point x="519" y="1403"/>
      <point x="613" y="1403" type="curve" smooth="yes"/>
      <point x="707" y="1403"/>
      <point x="709" y="1309"/>
      <point x="709" y="1238" type="curve" smooth="yes"/>
      <point x="709" y="1056" type="line"/>
      <point x="1108" y="1056" type="line"/>
      <point x="1108" y="1205" type="line" smooth="yes"/>
      <point x="1108" y="1481"/>
      <point x="997" y="1684"/>
      <point x="613" y="1684" type="curve" smooth="yes"/>
      <point x="227" y="1684"/>
      <point x="100" y="1475"/>
      <point x="100" y="1128" type="curve" smooth="yes"/>
      <point x="100" y="529" type="line" smooth="yes"/>
      <point x="100" y="184"/>
      <point x="227" y="-26"/>
    </contour>
  </outline>
</glyph>
<glyph name="D" format="1">
  <advance width="1234"/>
  <unicode hex="0044"/>
  <outline>
    <contour>
      <point x="526" y="280" type="line"/>
      <point x="526" y="1378" type="line"/>
      <point x="564" y="1378" type="line" smooth="yes"/>
      <point x="703" y="1378"/>
      <point x="717" y="1334"/>
      <point x="717" y="1220" type="curve" smooth="yes"/>
      <point x="717" y="442" type="line" smooth="yes"/>
      <point x="717" y="327"/>
      <point x="703" y="280"/>
      <point x="564" y="280" type="curve" smooth="yes"/>
    </contour>
    <contour>
      <point x="120" y="0" type="line"/>
      <point x="558" y="0" type="line" smooth="yes"/>
      <point x="1010" y="0"/>
      <point x="1134" y="151"/>
      <point x="1134" y="531" type="curve" smooth="yes"/>
      <point x="1134" y="1129" type="line" smooth="yes"/>
      <point x="1134" y="1508"/>
      <point x="1010" y="1658"/>
      <point x="557" y="1658" type="curve" smooth="yes"/>
      <point x="120" y="1658" type="line"/>
    </contour>
  </outline>
</glyph>
<glyph name="w" format="1">
  <advance width="1229"/>
  <unicode hex="0077"/>
  <outline>
    <contour>
      <point x="209" y="0" type="line"/>
      <point x="517" y="0" type="line"/>
      <point x="618" y="616" type="line"/>
      <point x="702" y="0" type="line"/>
      <point x="1017" y="0" type="line"/>
      <point x="1190" y="1184" type="line"/>
      <point x="908" y="1184" type="line"/>
      <point x="816" y="548" type="line"/>
      <point x="758" y="1184" type="line"/>
      <point x="496" y="1184" type="line"/>
      <point x="421" y="569" type="line"/>
      <point x="346" y="1184" type="line"/>
      <point x="39" y="1184" type="line"/>
    </contour>
  </outline>
</glyph>
<glyph name="y" format="1">
  <advance width="951"/>
  <unicode hex="0079"/>
  <outline>
    <contour>
      <point x="150" y="-358" type="line"/>
      <point x="203" y="-358" type="line"/>
      <point x="400" y="-361"/>
      <point x="599" y="-300"/>
      <point x="651" y="-65" type="curve" smooth="yes"/>
      <point x="929" y="1184" type="line"/>
      <point x="588" y="1184" type="line"/>
      <point x="488" y="558" type="line"/>
      <point x="341" y="1184" type="line"/>
      <point x="0" y="1184" type="line"/>
      <point x="3" y="1171"/>
      <point x="286" y="203"/>
      <point x="290" y="190" type="curve" smooth="yes"/>
      <point x="301" y="152"/>
      <point x="334" y="28"/>
      <point x="334" y="-4" type="curve" smooth="yes"/>
      <point x="335" y="-99"/>
      <point x="264" y="-109"/>
      <point x="150" y="-109" type="curve"/>
    </contour>
  </outline>
</glyph>
<glyph name="threequarters" format="1">
  <advance width="1320"/>
  <unicode hex="00BE"/>
  <outline>
    <contour>
      <point x="316" y="903" type="curve" smooth="yes"/>
      <point x="451" y="903"/>
      <point x="518" y="985"/>
      <point x="518" y="1130" type="curve" smooth="yes"/>
      <point x="518" y="1219"/>
      <point x="485" y="1274"/>
      <point x="402" y="1291" type="curve"/>
      <point x="454" y="1299"/>
      <point x="513" y="1361"/>
      <point x="513" y="1447" type="curve" smooth="yes"/>
      <point x="513" y="1583"/>
      <point x="457" y="1659"/>
      <point x="321" y="1659" type="curve" smooth="yes"/>
      <point x="184" y="1659"/>
      <point x="97" y="1595"/>
      <point x="97" y="1433" type="curve"/>
      <point x="239" y="1433" type="line"/>
      <point x="239" y="1482"/>
      <point x="253" y="1515"/>
      <point x="304" y="1515" type="curve" smooth="yes"/>
      <point x="346" y="1515"/>
      <point x="363" y="1485"/>
      <point x="363" y="1427" type="curve" smooth="yes"/>
      <point x="363" y="1355"/>
      <point x="325" y="1338"/>
      <point x="232" y="1338" type="curve"/>
      <point x="232" y="1216" type="line"/>
      <point x="326" y="1216"/>
      <point x="360" y="1206"/>
      <point x="360" y="1127" type="curve" smooth="yes"/>
      <point x="360" y="1080"/>
      <point x="344" y="1047"/>
      <point x="306" y="1047" type="curve" smooth="yes"/>
      <point x="269" y="1047"/>
      <point x="239" y="1072"/>
      <point x="239" y="1128" type="curve"/>
      <point x="97" y="1128" type="line"/>
      <point x="97" y="994"/>
      <point x="176" y="903"/>
    </contour>
    <contour>
      <point x="959" y="0" type="line"/>
      <point x="1126" y="0" type="line"/>
      <point x="1126" y="226" type="line"/>
      <point x="1229" y="226" type="line"/>
      <point x="1229" y="390" type="line"/>
      <point x="1126" y="390" type="line"/>
      <point x="1126" y="849" type="line"/>
      <point x="975" y="849" type="line"/>
      <point x="693" y="379" type="line"/>
      <point x="693" y="226" type="line"/>
      <point x="959" y="226" type="line"/>
    </contour>
    <contour>
      <point x="151" y="0" type="line"/>
      <point x="309" y="0" type="line"/>
      <point x="1153" y="1658" type="line"/>
      <point x="994" y="1658" type="line"/>
    </contour>
    <contour>
      <point x="812" y="390" type="line"/>
      <point x="959" y="644" type="line"/>
      <point x="959" y="390" type="line"/>
    </contour>
  </outline>
</glyph>
<glyph name="ae" format="1">
  <advance width="1374"/>
  <unicode hex="00E6"/>
  <outline>
    <contour>
      <point x="379" y="-27" type="curve" smooth="yes"/>
      <point x="494" y="-27"/>
      <point x="631" y="27"/>
      <point x="681" y="139" type="curve"/>
      <point x="710" y="25"/>
      <point x="859" y="-27"/>
      <point x="956" y="-27" type="curve" smooth="yes"/>
      <point x="1175" y="-26"/>
      <point x="1298" y="93"/>
      <point x="1298" y="305" type="curve" smooth="yes"/>
      <point x="1298" y="414" type="line"/>
      <point x="965" y="414" type="line"/>
      <point x="965" y="346" type="line" smooth="yes"/>
      <point x="965" y="277"/>
      <point x="971" y="230"/>
      <point x="923" y="230" type="curve" smooth="yes"/>
      <point x="879" y="230"/>
      <point x="874" y="271"/>
      <point x="874" y="353" type="curve" smooth="yes"/>
      <point x="874" y="602" type="line"/>
      <point x="907" y="608"/>
      <point x="945" y="615"/>
      <point x="978" y="623" type="curve" smooth="yes"/>
      <point x="1151" y="666"/>
      <point x="1314" y="745"/>
      <point x="1314" y="944" type="curve" smooth="yes"/>
      <point x="1314" y="1078"/>
      <point x="1200" y="1243"/>
      <point x="959" y="1243" type="curve" smooth="yes"/>
      <point x="831" y="1243"/>
      <point x="720" y="1174"/>
      <point x="688" y="1083" type="curve"/>
      <point x="665" y="1173"/>
      <point x="569" y="1244"/>
      <point x="439" y="1244" type="curve" smooth="yes"/>
      <point x="171" y="1244"/>
      <point x="50" y="1077"/>
      <point x="55" y="789" type="curve"/>
      <point x="409" y="789" type="line"/>
      <point x="409" y="914"/>
      <point x="440" y="930"/>
      <point x="472" y="930" type="curve" smooth="yes"/>
      <point x="504" y="930"/>
      <point x="530" y="915"/>
      <point x="530" y="843" type="curve" smooth="yes"/>
      <point x="530" y="698" type="line"/>
      <point x="486" y="690"/>
      <point x="428" y="681"/>
      <point x="376" y="668" type="curve" smooth="yes"/>
      <point x="216" y="629"/>
      <point x="52" y="544"/>
      <point x="52" y="282" type="curve" smooth="yes"/>
      <point x="52" y="73"/>
      <point x="204" y="-26"/>
    </contour>
    <contour>
      <point x="447" y="216" type="curve" smooth="yes"/>
      <point x="383" y="216"/>
      <point x="366" y="286"/>
      <point x="366" y="318" type="curve" smooth="yes"/>
      <point x="366" y="354"/>
      <point x="383" y="460"/>
      <point x="475" y="520" type="curve" smooth="yes"/>
      <point x="491" y="530"/>
      <point x="510" y="539"/>
      <point x="531" y="547" type="curve"/>
      <point x="533" y="322" type="line" smooth="yes"/>
      <point x="533" y="232"/>
      <point x="495" y="216"/>
    </contour>
    <contour>
      <point x="873" y="761" type="curve"/>
      <point x="873" y="899" type="line" smooth="yes"/>
      <point x="873" y="971"/>
      <point x="913" y="1016"/>
      <point x="954" y="1016" type="curve" smooth="yes"/>
      <point x="987" y="1016"/>
      <point x="1015" y="985"/>
      <point x="1015" y="918" type="curve" smooth="yes"/>
      <point x="1015" y="863"/>
      <point x="999" y="827"/>
      <point x="973" y="803" type="curve" smooth="yes"/>
      <point x="950" y="780"/>
      <point x="913" y="767"/>
    </contour>
  </outline>
</glyph>
<glyph name="thorn" format="1">
  <advance width="1039"/>
  <unicode hex="00FE"/>
  <outline>
    <contour>
      <point x="89" y="-390" type="line"/>
      <point x="456" y="-390" type="line"/>
      <point x="456" y="89" type="line"/>
      <point x="541" y="19"/>
      <point x="633" y="-22"/>
      <point x="719" y="-22" type="curve" smooth="yes"/>
      <point x="867" y="-22"/>
      <point x="967" y="98"/>
      <point x="967" y="310" type="curve" smooth="yes"/>
      <point x="967" y="885" type="line" smooth="yes"/>
      <point x="967" y="1091"/>
      <point x="878" y="1199"/>
      <point x="720" y="1206" type="curve" smooth="yes"/>
      <point x="641" y="1209"/>
      <point x="546" y="1176"/>
      <point x="456" y="1100" type="curve"/>
      <point x="456" y="1658" type="line"/>
      <point x="89" y="1658" type="line"/>
    </contour>
    <contour>
      <point x="525" y="206" type="curve" smooth="yes"/>
      <point x="504" y="206"/>
      <point x="480" y="216"/>
      <point x="456" y="230" type="curve"/>
      <point x="456" y="963" type="line"/>
      <point x="482" y="982"/>
      <point x="506" y="994"/>
      <point x="524" y="997" type="curve" smooth="yes"/>
      <point x="572" y="1003"/>
      <point x="599" y="963"/>
      <point x="599" y="918" type="curve" smooth="yes"/>
      <point x="599" y="286" type="line" smooth="yes"/>
      <point x="599" y="241"/>
      <point x="572" y="205"/>
    </contour>
  </outline>
</glyph>
<glyph name="dcroat" format="1">
  <advance width="1051"/>
  <unicode hex="0111"/>
  <outline>
    <contour>
      <point x="346" y="-22" type="curve" smooth="yes"/>
      <point x="428" y="-22"/>
      <point x="509" y="20"/>
      <point x="586" y="96" type="curve"/>
      <point x="586" y="0" type="line"/>
      <point x="953" y="0" type="line"/>
      <point x="953" y="1395" type="line"/>
      <point x="1046" y="1395" type="line"/>
      <point x="1046" y="1533" type="line"/>
      <point x="953" y="1533" type="line"/>
      <point x="953" y="1658" type="line"/>
      <point x="586" y="1658" type="line"/>
      <point x="586" y="1533" type="line"/>
      <point x="300" y="1533" type="line"/>
      <point x="300" y="1395" type="line"/>
      <point x="586" y="1395" type="line"/>
      <point x="586" y="1111" type="line"/>
      <point x="516" y="1170"/>
      <point x="437" y="1206"/>
      <point x="348" y="1206" type="curve" smooth="yes"/>
      <point x="183" y="1206"/>
      <point x="78" y="1077"/>
      <point x="78" y="874" type="curve" smooth="yes"/>
      <point x="78" y="309" type="line" smooth="yes"/>
      <point x="78" y="98"/>
      <point x="177" y="-22"/>
    </contour>
    <contour>
      <point x="517" y="203" type="curve" smooth="yes"/>
      <point x="472" y="203"/>
      <point x="447" y="242"/>
      <point x="447" y="287" type="curve" smooth="yes"/>
      <point x="447" y="892" type="line" smooth="yes"/>
      <point x="447" y="948"/>
      <point x="471" y="987"/>
      <point x="521" y="987" type="curve" smooth="yes"/>
      <point x="541" y="987"/>
      <point x="563" y="980"/>
      <point x="586" y="968" type="curve"/>
      <point x="586" y="229" type="line"/>
      <point x="559" y="213"/>
      <point x="535" y="203"/>
    </contour>
  </outline>
</glyph>
<glyph name="eng" format="1">
  <advance width="1029"/>
  <unicode hex="014B"/>
  <outline>
    <contour>
      <point x="379" y="-405" type="line"/>
      <point x="517" y="-405" type="line" smooth="yes"/>
      <point x="873" y="-405"/>
      <point x="969" y="-302"/>
      <point x="969" y="-12" type="curve" smooth="yes"/>
      <point x="969" y="919" type="line" smooth="yes"/>
      <point x="969" y="1090"/>
      <point x="882" y="1206"/>
      <point x="737" y="1206" type="curve" smooth="yes"/>
      <point x="635" y="1206"/>
      <point x="543" y="1176"/>
      <point x="452" y="1084" type="curve"/>
      <point x="452" y="1184" type="line"/>
      <point x="85" y="1184" type="line"/>
      <point x="85" y="0" type="line"/>
      <point x="452" y="0" type="line"/>
      <point x="452" y="917" type="line"/>
      <point x="488" y="940"/>
      <point x="521" y="949"/>
      <point x="544" y="951" type="curve" smooth="yes"/>
      <point x="588" y="953"/>
      <point x="602" y="926"/>
      <point x="602" y="876" type="curve" smooth="yes"/>
      <point x="602" y="-10" type="line" smooth="yes"/>
      <point x="602" y="-151"/>
      <point x="564" y="-183"/>
      <point x="379" y="-183" type="curve"/>
    </contour>
  </outline>
</glyph>
<glyph name="tildecomb" format="1">
  <advance width="868"/>
  <unicode hex="0303"/>
  <outline>
    <contour>
      <point x="647" y="1350" type="curve" smooth="yes"/>
      <point x="761" y="1361"/>
      <point x="773" y="1522"/>
      <point x="772" y="1658" type="curve"/>
      <point x="618" y="1658" type="line"/>
      <point x="618" y="1618"/>
      <point x="605" y="1576"/>
      <point x="555" y="1585" type="curve" smooth="yes"/>
      <point x="505" y="1593"/>
      <point x="411" y="1683"/>
      <point x="283" y="1670" type="curve" smooth="yes"/>
      <point x="142" y="1657"/>
      <point x="115" y="1538"/>
      <point x="116" y="1360" type="curve"/>
      <point x="286" y="1360" type="line"/>
      <point x="286" y="1396"/>
      <point x="296" y="1444"/>
      <point x="345" y="1444" type="curve" smooth="yes"/>
      <point x="417" y="1444"/>
      <point x="548" y="1340"/>
    </contour>
  </outline>
</glyph>
<glyph name="uni0308" format="1">
  <advance width="884"/>
  <unicode hex="0308"/>
  <outline>
    <contour>
      <point x="67" y="1334" type="line"/>
      <point x="346" y="1334" type="line"/>
      <point x="346" y="1658" type="line"/>
      <point x="67" y="1658" type="line"/>
    </contour>
    <contour>
      <point x="537" y="1334" type="line"/>
      <point x="817" y="1334" type="line"/>
      <point x="817" y="1658" type="line"/>
      <point x="537" y="1658" type="line"/>
    </contour>
  </outline>
</glyph>
<glyph name="uni030C" format="1">
  <advance width="833"/>
  <unicode hex="030C"/>
  <outline>
    <contour>
      <point x="241" y="1270" type="line"/>
      <point x="590" y="1270" type="line"/>
      <point x="774" y="1658" type="line"/>
      <point x="517" y="1658" type="line"/>
      <point x="416" y="1440" type="line"/>
      <point x="320" y="1658" type="line"/>
      <point x="64" y="1658" type="line"/>
    </contour>
  </outline>
</glyph>
<glyph name="uni030F" format="1">
  <advance width="994"/>
  <unicode hex="030F"/>
  <outline>
    <contour>
      <point x="286" y="1266" type="line"/>
      <point x="488" y="1266" type="line"/>
      <point x="353" y="1710" type="line"/>
      <point x="89" y="1710" type="line"/>
    </contour>
    <contour>
      <point x="671" y="1266" type="line"/>
      <point x="869" y="1266" type="line"/>
      <point x="735" y="1710" type="line"/>
      <point x="475" y="1710" type="line"/>
    </contour>
  </outline>
</glyph>
<glyph name="afii10025" format="1">
  <advance width="1103"/>
  <unicode hex="0417"/>
  <outline>
    <contour>
      <point x="562" y="-34" type="curve" smooth="yes"/>
      <point x="904" y="-34"/>
      <point x="1029" y="186"/>
      <point x="1029" y="493" type="curve" smooth="yes"/>
      <point x="1029" y="733"/>
      <point x="941" y="824"/>
      <point x="836" y="866" type="curve"/>
      <point x="941" y="892"/>
      <point x="1029" y="1038"/>
      <point x="1029" y="1230" type="curve" smooth="yes"/>
      <point x="1029" y="1535"/>
      <point x="847" y="1687"/>
      <point x="554" y="1687" type="curve" smooth="yes"/>
      <point x="269" y="1687"/>
      <point x="76" y="1521"/>
      <point x="76" y="1212" type="curve" smooth="yes"/>
      <point x="76" y="1099" type="line"/>
      <point x="455" y="1099" type="line"/>
      <point x="455" y="1099"/>
      <point x="455" y="1201"/>
      <point x="455" y="1202" type="curve" smooth="yes"/>
      <point x="455" y="1312"/>
      <point x="477" y="1386"/>
      <point x="551" y="1386" type="curve" smooth="yes"/>
      <point x="626" y="1386"/>
      <point x="657" y="1325"/>
      <point x="657" y="1202" type="curve" smooth="yes"/>
      <point x="657" y="1039"/>
      <point x="629" y="959"/>
      <point x="484" y="958" type="curve" smooth="yes"/>
      <point x="484" y="958"/>
      <point x="392" y="958"/>
      <point x="391" y="958" type="curve"/>
      <point x="391" y="720" type="line"/>
      <point x="392" y="720"/>
      <point x="490" y="720"/>
      <point x="491" y="720" type="curve" smooth="yes"/>
      <point x="630" y="719"/>
      <point x="657" y="643"/>
      <point x="657" y="481" type="curve" smooth="yes"/>
      <point x="657" y="342"/>
      <point x="641" y="285"/>
      <point x="568" y="285" type="curve" smooth="yes"/>
      <point x="492" y="285"/>
      <point x="468" y="337"/>
      <point x="468" y="507" type="curve" smooth="yes"/>
      <point x="468" y="508"/>
      <point x="468" y="572"/>
      <point x="468" y="573" type="curve"/>
      <point x="89" y="573" type="line"/>
      <point x="89" y="514" type="line" smooth="yes"/>
      <point x="89" y="190"/>
      <point x="191" y="-34"/>
    </contour>
  </outline>
</glyph>
<glyph name="afii10034" format="1">
  <advance width="1216"/>
  <unicode hex="0420"/>
  <outline>
    <contour>
      <point x="120" y="0" type="line"/>
      <point x="526" y="0" type="line"/>
      <point x="526" y="685" type="line"/>
      <point x="663" y="685" type="line" smooth="yes"/>
      <point x="932" y="685"/>
      <point x="1165" y="753"/>
      <point x="1165" y="1171" type="curve" smooth="yes"/>
      <point x="1165" y="1484"/>
      <point x="1017" y="1658"/>
      <point x="720" y="1658" type="curve" smooth="yes"/>
      <point x="120" y="1658" type="line"/>
    </contour>
    <contour>
      <point x="526" y="966" type="line"/>
      <point x="526" y="1374" type="line"/>
      <point x="651" y="1374" type="line" smooth="yes"/>
      <point x="775" y="1374"/>
      <point x="785" y="1272"/>
      <point x="785" y="1180" type="curve" smooth="yes"/>
      <point x="785" y="1044"/>
      <point x="773" y="966"/>
      <point x="655" y="966" type="curve" smooth="yes"/>
    </contour>
  </outline>
</glyph>
<glyph name="afii10073" format="1">
  <advance width="967"/>
  <unicode hex="0437"/>
  <outline>
    <contour>
      <point x="475" y="-22" type="curve" smooth="yes"/>
      <point x="787" y="-22"/>
      <point x="913" y="133"/>
      <point x="913" y="325" type="curve" smooth="yes"/>
      <point x="913" y="501"/>
      <point x="844" y="571"/>
      <point x="739" y="615" type="curve"/>
      <point x="833" y="648"/>
      <point x="905" y="725"/>
      <point x="905" y="869" type="curve" smooth="yes"/>
      <point x="905" y="1062"/>
      <point x="784" y="1206"/>
      <point x="490" y="1206" type="curve" smooth="yes"/>
      <point x="142" y="1206"/>
      <point x="77" y="1002"/>
      <point x="77" y="805" type="curve"/>
      <point x="363" y="805" type="line"/>
      <point x="363" y="914"/>
      <point x="388" y="956"/>
      <point x="472" y="956" type="curve" smooth="yes"/>
      <point x="550" y="956"/>
      <point x="572" y="908"/>
      <point x="572" y="837" type="curve" smooth="yes"/>
      <point x="572" y="738"/>
      <point x="541" y="703"/>
      <point x="382" y="703" type="curve"/>
      <point x="382" y="525" type="line"/>
      <point x="542" y="525"/>
      <point x="601" y="476"/>
      <point x="601" y="370" type="curve" smooth="yes"/>
      <point x="601" y="288"/>
      <point x="573" y="227"/>
      <point x="486" y="227" type="curve" smooth="yes"/>
      <point x="402" y="227"/>
      <point x="367" y="285"/>
      <point x="367" y="401" type="curve"/>
      <point x="78" y="401" type="line"/>
      <point x="78" y="196"/>
      <point x="117" y="-22"/>
    </contour>
  </outline>
</glyph>
<glyph name="afii10077" format="1">
  <advance width="1210"/>
  <unicode hex="043B"/>
  <outline>
    <contour>
      <point x="24" y="0" type="line"/>
      <point x="98" y="-9"/>
      <point x="157" y="-14"/>
      <point x="212" y="-14" type="curve" smooth="yes"/>
      <point x="448" y="-14"/>
      <point x="551" y="71"/>
      <point x="587" y="494" type="curve" smooth="yes"/>
      <point x="626" y="941" type="line"/>
      <point x="741" y="941" type="line"/>
      <point x="741" y="0" type="line"/>
      <point x="1107" y="0" type="line"/>
      <point x="1107" y="1184" type="line"/>
      <point x="317" y="1184" type="line"/>
      <point x="260" y="539" type="line" smooth="yes"/>
      <point x="240" y="306"/>
      <point x="221" y="214"/>
      <point x="24" y="243" type="curve"/>
    </contour>
  </outline>
</glyph>
<glyph name="afii10095" format="1">
  <advance width="1014"/>
  <unicode hex="044D"/>
  <outline>
    <contour>
      <point x="508" y="-22" type="curve" smooth="yes"/>
      <point x="758" y="-22"/>
      <point x="936" y="113"/>
      <point x="936" y="351" type="curve" smooth="yes"/>
      <point x="936" y="831" type="line" smooth="yes"/>
      <point x="936" y="1069"/>
      <point x="758" y="1206"/>
      <point x="508" y="1206" type="curve" smooth="yes"/>
      <point x="260" y="1206"/>
      <point x="86" y="1089"/>
      <point x="86" y="852" type="curve" smooth="yes"/>
      <point x="86" y="762" type="line"/>
      <point x="444" y="762" type="line"/>
      <point x="444" y="854" type="line" smooth="yes"/>
      <point x="444" y="932"/>
      <point x="473" y="946"/>
      <point x="508" y="946" type="curve" smooth="yes"/>
      <point x="540" y="946"/>
      <point x="567" y="923"/>
      <point x="567" y="845" type="curve" smooth="yes"/>
      <point x="567" y="655" type="line"/>
      <point x="300" y="655" type="line"/>
      <point x="300" y="509" type="line"/>
      <point x="567" y="509" type="line"/>
      <point x="567" y="338" type="line" smooth="yes"/>
      <point x="567" y="259"/>
      <point x="541" y="236"/>
      <point x="508" y="236" type="curve" smooth="yes"/>
      <point x="474" y="236"/>
      <point x="444" y="248"/>
      <point x="444" y="328" type="curve" smooth="yes"/>
      <point x="444" y="399" type="line"/>
      <point x="86" y="399" type="line"/>
      <point x="86" y="330" type="line" smooth="yes"/>
      <point x="86" y="93"/>
      <point x="260" y="-22"/>
    </contour>
  </outline>
</glyph>
<glyph name="afii10103" format="1">
  <advance width="532"/>
  <unicode hex="0456"/>
  <outline>
    <contour>
      <point x="88" y="0" type="line"/>
      <point x="455" y="0" type="line"/>
      <point x="455" y="1184" type="line"/>
      <point x="88" y="1184" type="line"/>
    </contour>
    <contour>
      <point x="86" y="1389" type="line"/>
      <point x="455" y="1389" type="line"/>
      <point x="455" y="1624" type="line"/>
      <point x="86" y="1624" type="line"/>
    </contour>
  </outline>
</glyph>
<glyph name="quoteleft" format="1">
  <advance width="578"/>
  <unicode hex="2018"/>
  <outline>
    <contour>
      <point x="121" y="1068" type="curve"/>
      <point x="431" y="1068" type="line"/>
      <point x="431" y="1379" type="line"/>
      <point x="279" y="1379" type="line"/>
      <point x="279" y="1470"/>
      <point x="294" y="1549"/>
      <point x="407" y="1549" type="curve"/>
      <point x="387" y="1661" type="line"/>
      <point x="186" y="1661"/>
      <point x="136" y="1545"/>
      <point x="125" y="1302" type="curve" smooth="yes"/>
      <point x="122" y="1236"/>
      <point x="121" y="1153"/>
    </contour>
  </outline>
</glyph>
<glyph name="fraction" format="1">
  <advance width="710"/>
  <unicode hex="2044"/>
  <outline>
    <contour>
      <point x="38" y="0" type="line"/>
      <point x="292" y="0" type="line"/>
      <point x="671" y="1658" type="line"/>
      <point x="418" y="1658" type="line"/>
    </contour>
  </outline>
</glyph>
<glyph name="radical" format="1">
  <advance width="1226"/>
  <unicode hex="221A"/>
  <outline>
    <contour>
      <point x="497" y="0" type="line"/>
      <point x="938" y="0" type="line"/>
      <point x="1203" y="1658" type="line"/>
      <point x="836" y="1658" type="line"/>
      <point x="774" y="1009" type="line"/>
      <point x="720" y="489" type="line"/>
      <point x="655" y="1009" type="line"/>
      <point x="629" y="1184" type="line"/>
      <point x="67" y="1184" type="line"/>
      <point x="67" y="950" type="line"/>
      <point x="332" y="950" type="line"/>
    </contour>
  </outline>
</glyph>
<glyph name="uniFB03" format="1">
  <advance width="1686"/>
  <unicode hex="FB03"/>
  <outline>
    <contour>
      <point x="1270" y="1390" type="line"/>
      <point x="1600" y="1390" type="line"/>
      <point x="1600" y="1625" type="line"/>
      <point x="1270" y="1625" type="line"/>
    </contour>
    <contour>
      <point x="121" y="0" type="line"/>
      <point x="488" y="0" type="line"/>
      <point x="488" y="944" type="line"/>
      <point x="680" y="944" type="line"/>
      <point x="680" y="0" type="line"/>
      <point x="1046" y="0" type="line"/>
      <point x="1046" y="944" type="line"/>
      <point x="1233" y="944" type="line"/>
      <point x="1233" y="0" type="line"/>
      <point x="1600" y="0" type="line"/>
      <point x="1600" y="1184" type="line"/>
      <point x="1046" y="1184" type="line"/>
      <point x="1046" y="1278" type="line" smooth="yes"/>
      <point x="1046" y="1335"/>
      <point x="1073" y="1350"/>
      <point x="1106" y="1350" type="curve" smooth="yes"/>
      <point x="1125" y="1350"/>
      <point x="1146" y="1345"/>
      <point x="1165" y="1342" type="curve"/>
      <point x="1165" y="1614" type="line"/>
      <point x="1103" y="1621"/>
      <point x="1073" y="1624"/>
      <point x="1024" y="1624" type="curve" smooth="yes"/>
      <point x="718" y="1624"/>
      <point x="680" y="1485"/>
      <point x="680" y="1280" type="curve" smooth="yes"/>
      <point x="680" y="1184" type="line"/>
      <point x="488" y="1184" type="line"/>
      <point x="488" y="1278" type="line" smooth="yes"/>
      <point x="488" y="1335"/>
      <point x="511" y="1350"/>
      <point x="544" y="1350" type="curve" smooth="yes"/>
      <point x="562" y="1350"/>
      <point x="582" y="1345"/>
      <point x="601" y="1342" type="curve"/>
      <point x="601" y="1614" type="line"/>
      <point x="539" y="1621"/>
      <point x="515" y="1624"/>
      <point x="466" y="1624" type="curve" smooth="yes"/>
      <point x="159" y="1624"/>
      <point x="121" y="1485"/>
      <point x="121" y="1280" type="curve" smooth="yes"/>
      <point x="121" y="1184" type="line"/>
      <point x="17" y="1184" type="line"/>
      <point x="17" y="944" type="line"/>
      <point x="121" y="944" type="line"/>
    </contour>
  </outline>
</glyph>
<glyph name="periodcentred" format="1">
  <advance width="415"/>
  <outline>
    <contour>
      <point x="203" y="713" type="line"/>
      <point x="271" y="713" type="line"/>
      <point x="271" y="836" type="line"/>
      <point x="203" y="836" type="line"/>
    </contour>
  </outline>
</glyph>
